<?xml version="1.0" encoding="utf-8"?>
<!-- Generator: Adobe Illustrator 16.0.0, SVG Export Plug-In . SVG Version: 6.00 Build 0)  -->
<!DOCTYPE svg PUBLIC "-//W3C//DTD SVG 1.1//EN" "http://www.w3.org/Graphics/SVG/1.1/DTD/svg11.dtd">
<svg version="1.1" id="Layer_1" xmlns="http://www.w3.org/2000/svg" xmlns:xlink="http://www.w3.org/1999/xlink" x="0px" y="0px"
	 width="648px" height="360px" viewBox="0 0 648 360" enable-background="new 0 0 648 360" xml:space="preserve">
<g>
	<g>
		<g>
			<g>
				<path fill="#263844" d="M288.905,151.933l-45.782-41.174c0,0-33.762,31.197-82.839,75.72
					c-16.033,14.564-28.643,15.751-46.18,15.751c-3.545,0-7.654,0.527-14.064,4.984c-20.713,14.368-54.782,42.027-54.782,42.027
					s69.483,0,106.454,0c32.73,0,49.559-18.428,49.559-18.428l41.644-37.295L288.905,151.933z"/>
			</g>
			<path fill="#263844" d="M449.003,110.969l-52.322,46.933l-52.178-46.933l-50.584,45.464l-0.055-0.043l-45.959,41.26
				l-56.837,51.592c0,0,52.148,0,71.064,0c21.571,0,31.634-10.354,31.634-10.354l50.656-45.536l51.882,46.795l52.618-46.795
				l51.882,46.795c0,0,8.103,9.095,24.186,9.095c16.068,0,77.753,0,77.753,0L449.003,110.969z"/>
		</g>
	</g>
</g>
</svg>
